<svg id="car-fill" xmlns="http://www.w3.org/2000/svg" width="20" height="20" viewBox="0 0 20 20">
  <path id="Path_24" data-name="Path 24" d="M0,0H20V20H0Z" fill="none"/>
  <path id="Path_25" data-name="Path 25" d="M15.6,17.333H4.4v.833A.817.817,0,0,1,3.6,19H2.8a.817.817,0,0,1-.8-.833v-7.5L4.01,5.082A1.6,1.6,0,0,1,5.509,4h8.982a1.6,1.6,0,0,1,1.5,1.082L18,10.667v7.5a.817.817,0,0,1-.8.833h-.8a.817.817,0,0,1-.8-.833ZM3.709,10.667H16.291l-1.8-5H5.509ZM5.6,14.833a1.251,1.251,0,1,0-1.2-1.25A1.226,1.226,0,0,0,5.6,14.833Zm8.8,0a1.251,1.251,0,1,0-1.2-1.25A1.226,1.226,0,0,0,14.4,14.833Z" transform="translate(0 -1)" fill="#3497fd"/>
</svg>
