<svg xmlns="http://www.w3.org/2000/svg" width="18.647" height="18.388" viewBox="0 0 18.647 18.388">
  <g id="menu-grid" transform="translate(0)">
    <g id="Group_64" data-name="Group 64" transform="translate(0 0)">
      <path id="Path_119" data-name="Path 119" d="M7.77,3.61a.779.779,0,0,0-.777-.777H.777A.779.779,0,0,0,0,3.61V9.826a.779.779,0,0,0,.777.777H6.993a.779.779,0,0,0,.777-.777Zm-6.216.777H6.216V9.049H1.554Z" transform="translate(0 -2.833)" fill="#454f63"/>
      <path id="Path_120" data-name="Path 120" d="M245.77,3.61a.779.779,0,0,0-.777-.777h-6.216A.779.779,0,0,0,238,3.61V9.826a.779.779,0,0,0,.777.777h6.216a.779.779,0,0,0,.777-.777Zm-6.216.777h4.662V9.049h-4.662Z" transform="translate(-227.122 -2.833)" fill="#454f63"/>
      <path id="Path_121" data-name="Path 121" d="M7.77,235.944a.779.779,0,0,0-.777-.777H.777a.779.779,0,0,0-.777.777v6.216a.779.779,0,0,0,.777.777H6.993a.779.779,0,0,0,.777-.777Zm-6.216.777H6.216v4.662H1.554Z" transform="translate(0 -224.548)" fill="#454f63"/>
      <path id="Path_122" data-name="Path 122" d="M245.77,235.944a.779.779,0,0,0-.777-.777h-6.216a.779.779,0,0,0-.777.777v6.216a.779.779,0,0,0,.777.777h6.216a.779.779,0,0,0,.777-.777Zm-6.216.777h4.662v4.662h-4.662Z" transform="translate(-227.122 -224.548)" fill="#454f63"/>
    </g>
  </g>
</svg>
